<?xml version="1.0" encoding="UTF-8" standalone="no"?>
<svg
   xmlns:dc="http://purl.org/dc/elements/1.1/"
   xmlns:cc="http://creativecommons.org/ns#"
   xmlns:rdf="http://www.w3.org/1999/02/22-rdf-syntax-ns#"
   xmlns:svg="http://www.w3.org/2000/svg"
   xmlns="http://www.w3.org/2000/svg"
   xmlns:xlink="http://www.w3.org/1999/xlink"
   version="1.1"
   id="svg5472"
   height="29.87467"
   width="47.31831">
  <title
     id="title5474">Jester's Hat</title>
  <defs
     id="defs5474">
    <linearGradient
       id="linearGradient5300">
      <stop
         id="stop5302"
         offset="0"
         style="stop-color:#550000;stop-opacity:1;" />
      <stop
         id="stop5304"
         offset="1"
         style="stop-color:#550000;stop-opacity:0;" />
    </linearGradient>
    <linearGradient
       id="linearGradient5289">
      <stop
         id="stop5291"
         offset="0"
         style="stop-color:#aa8800;stop-opacity:1" />
      <stop
         id="stop5293"
         offset="1"
         style="stop-color:#806600;stop-opacity:0;" />
    </linearGradient>
    <linearGradient
       id="linearGradient5278">
      <stop
         id="stop5280"
         offset="0"
         style="stop-color:#004455;stop-opacity:1;" />
      <stop
         id="stop5282"
         offset="1"
         style="stop-color:#004455;stop-opacity:0;" />
    </linearGradient>
    <linearGradient
       id="linearGradient5268">
      <stop
         id="stop5270"
         offset="0"
         style="stop-color:#112b00;stop-opacity:1" />
      <stop
         id="stop5272"
         offset="1"
         style="stop-color:#008033;stop-opacity:0;" />
    </linearGradient>
    <linearGradient
       id="linearGradient4733">
      <stop
         id="stop4735"
         offset="0"
         style="stop-color:#ffcc00;stop-opacity:1;" />
      <stop
         id="stop4737"
         offset="1"
         style="stop-color:#aa8800;stop-opacity:1" />
    </linearGradient>
    <radialGradient
       id="radialGradient26"
       gradientUnits="userSpaceOnUse"
       cy="-4.2997999"
       cx="40.700001"
       gradientTransform="matrix(0.8,0,0,-0.8,-6.853e-7,21.64)"
       r="3.5875001">
      <stop
         id="stop28"
         style="stop-color:#f7e35e"
         offset="0" />
      <stop
         id="stop30"
         style="stop-color:#b6952a"
         offset=".72940" />
      <stop
         id="stop32"
         style="stop-color:#805f1c"
         offset="1" />
    </radialGradient>
    <radialGradient
       id="radialGradient46"
       gradientUnits="userSpaceOnUse"
       cy="-8.6499004"
       cx="42.349998"
       gradientTransform="matrix(0.8,0,0,-0.8,-6.853e-7,14.68)"
       r="2.2249999">
      <stop
         id="stop48"
         style="stop-color:#a38925"
         offset="0" />
      <stop
         id="stop50"
         style="stop-color:#634d11"
         offset="1" />
    </radialGradient>
    <radialGradient
       id="radialGradient64"
       gradientUnits="userSpaceOnUse"
       cy="-7.4502001"
       cx="44.799999"
       gradientTransform="matrix(0.8,0,0,-0.8,-6.853e-7,16.6)"
       r="3.0875001">
      <stop
         id="stop66"
         style="stop-color:#f7e35e"
         offset="0" />
      <stop
         id="stop68"
         style="stop-color:#b6952a"
         offset=".72940" />
      <stop
         id="stop70"
         style="stop-color:#805f1c"
         offset="1" />
    </radialGradient>
    <linearGradient
       id="linearGradient84"
       y2="-12.678"
       gradientUnits="userSpaceOnUse"
       x2="44.037998"
       gradientTransform="matrix(0.8,0,0,0.8,-6.853e-7,28.52)"
       y1="-12.678"
       x1="3.8374">
      <stop
         id="stop86"
         style="stop-color:#c8a123"
         offset="0" />
      <stop
         id="stop88"
         style="stop-color:#debe36"
         offset=".2902" />
      <stop
         id="stop92"
         style="stop-color:#fefced"
         offset=".92160" />
      <stop
         id="stop94"
         style="stop-color:#fefced"
         offset="1" />
    </linearGradient>
    <linearGradient
       id="linearGradient108"
       y2="-18.51"
       gradientUnits="userSpaceOnUse"
       x2="41.786999"
       gradientTransform="matrix(0.8,0,0,0.8,-6.853e-7,28.52)"
       y1="-18.51"
       x1="5.3125">
      <stop
         id="stop110"
         style="stop-color:#805f1c"
         offset="0" />
      <stop
         id="stop112"
         style="stop-color:#b6952a"
         offset=".2157" />
      <stop
         id="stop114"
         style="stop-color:#f8e87a"
         offset="0.851" />
      <stop
         id="stop116"
         style="stop-color:#f8e87a"
         offset="1" />
    </linearGradient>
    <linearGradient
       id="linearGradient130"
       y2="-31.216"
       gradientUnits="userSpaceOnUse"
       x2="43.900002"
       gradientTransform="matrix(0.8,0,0,0.8,-6.853e-7,28.52)"
       y1="-31.216"
       x1="11.45">
      <stop
         id="stop132"
         style="stop-color:#c8a123"
         offset="0" />
      <stop
         id="stop134"
         style="stop-color:#debe36"
         offset=".2902" />
      <stop
         id="stop138"
         style="stop-color:#fefced"
         offset=".92160" />
      <stop
         id="stop140"
         style="stop-color:#fefced"
         offset="1" />
    </linearGradient>
    <linearGradient
       id="linearGradient154"
       y2="-30.799999"
       gradientUnits="userSpaceOnUse"
       x2="42.062"
       gradientTransform="matrix(0.8,0,0,0.8,-6.853e-7,28.52)"
       y1="-30.799999"
       x1="5.3374">
      <stop
         id="stop156"
         style="stop-color:#805f1c"
         offset="0" />
      <stop
         id="stop158"
         style="stop-color:#b6952a"
         offset=".2157" />
      <stop
         id="stop160"
         style="stop-color:#f8e87a"
         offset="0.851" />
      <stop
         id="stop162"
         style="stop-color:#f8e87a"
         offset="1" />
    </linearGradient>
    <radialGradient
       id="radialGradient176"
       gradientUnits="userSpaceOnUse"
       cy="-2.3999"
       cx="28.450001"
       gradientTransform="matrix(0.8,0,0,-0.8,-6.853e-7,24.68)"
       r="3.8875">
      <stop
         id="stop178"
         style="stop-color:#f7e35e"
         offset="0" />
      <stop
         id="stop180"
         style="stop-color:#b6952a"
         offset=".72940" />
      <stop
         id="stop182"
         style="stop-color:#805f1c"
         offset="1" />
    </radialGradient>
    <radialGradient
       id="radialGradient196"
       gradientUnits="userSpaceOnUse"
       cy="-7.1499"
       cx="35.200001"
       gradientTransform="matrix(0.8,0,0,-0.8,-6.853e-7,17.08)"
       r="2.5875001">
      <stop
         id="stop198"
         style="stop-color:#a38925"
         offset="0" />
      <stop
         id="stop200"
         style="stop-color:#634d11"
         offset="1" />
    </radialGradient>
    <radialGradient
       id="radialGradient214"
       gradientUnits="userSpaceOnUse"
       cy="-18.049999"
       cx="25.1"
       gradientTransform="matrix(0.8,0,0,-0.8,-6.853e-7,-0.35999)"
       r="14.162">
      <stop
         id="stop216"
         style="stop-color:#ae933d"
         offset="0" />
      <stop
         id="stop218"
         style="stop-color:#a98d3a"
         offset=".2157" />
      <stop
         id="stop220"
         style="stop-color:#997d31"
         offset=".498" />
      <stop
         id="stop222"
         style="stop-color:#7e6323"
         offset=".81570" />
      <stop
         id="stop224"
         style="stop-color:#6b5019"
         offset="1" />
    </radialGradient>
    <radialGradient
       id="radialGradient238"
       gradientUnits="userSpaceOnUse"
       cy="-7.0497999"
       cx="20.299999"
       gradientTransform="matrix(0.8,0,0,-0.8,-6.853e-7,17.24)"
       r="2.5875001">
      <stop
         id="stop240"
         style="stop-color:#a38925"
         offset="0" />
      <stop
         id="stop242"
         style="stop-color:#634d11"
         offset="1" />
    </radialGradient>
    <radialGradient
       id="radialGradient256"
       gradientUnits="userSpaceOnUse"
       cy="-3"
       cx="13.45"
       gradientTransform="matrix(0.8,0,0,-0.8,-6.853e-7,23.72)"
       r="3.8875">
      <stop
         id="stop258"
         style="stop-color:#f7e35e"
         offset="0" />
      <stop
         id="stop260"
         style="stop-color:#b6952a"
         offset=".72940" />
      <stop
         id="stop262"
         style="stop-color:#805f1c"
         offset="1" />
    </radialGradient>
    <radialGradient
       id="radialGradient276"
       gradientUnits="userSpaceOnUse"
       cy="-5.6001"
       cx="4.0497999"
       gradientTransform="matrix(0.8,0,0,-0.8,-6.853e-7,19.56)"
       r="3.4875">
      <stop
         id="stop278"
         style="stop-color:#f7e35e"
         offset="0" />
      <stop
         id="stop280"
         style="stop-color:#b6952a"
         offset=".72940" />
      <stop
         id="stop282"
         style="stop-color:#805f1c"
         offset="1" />
    </radialGradient>
    <radialGradient
       id="radialGradient296"
       gradientUnits="userSpaceOnUse"
       cy="-8.0497999"
       cx="2.25"
       gradientTransform="matrix(0.8,0,0,-0.8,-6.853e-7,15.64)"
       r="2.5875001">
      <stop
         id="stop298"
         style="stop-color:#f7e35e"
         offset="0" />
      <stop
         id="stop300"
         style="stop-color:#b6952a"
         offset=".60780" />
      <stop
         id="stop302"
         style="stop-color:#805f1c"
         offset="1" />
    </radialGradient>
    <linearGradient
       id="linearGradient316"
       y2="-12.675"
       gradientUnits="userSpaceOnUse"
       x2="44.062"
       gradientTransform="matrix(0.8,0,0,0.8,-6.853e-7,28.52)"
       y1="-12.675"
       x1="3.8374">
      <stop
         id="stop318"
         style="stop-color:#c8a123"
         offset="0" />
      <stop
         id="stop320"
         style="stop-color:#debe36"
         offset=".2902" />
      <stop
         id="stop324"
         style="stop-color:#fefced"
         offset=".92160" />
      <stop
         id="stop326"
         style="stop-color:#fefced"
         offset="1" />
    </linearGradient>
    <radialGradient
       id="radialGradient340"
       gradientUnits="userSpaceOnUse"
       cy="-8.0497999"
       cx="7.2002001"
       gradientTransform="matrix(0.8,0,0,-0.8,-6.853e-7,15.64)"
       r="2.3125">
      <stop
         id="stop342"
         style="stop-color:#a38925"
         offset="0" />
      <stop
         id="stop344"
         style="stop-color:#634d11"
         offset="1" />
    </radialGradient>
    <radialGradient
       id="radialGradient176-6"
       gradientUnits="userSpaceOnUse"
       cy="-2.3999"
       cx="28.450001"
       gradientTransform="matrix(0.8,0,0,-0.8,-6.853e-7,24.68)"
       r="3.8875">
      <stop
         id="stop178-7"
         style="stop-color:#f7e35e"
         offset="0" />
      <stop
         id="stop180-3"
         style="stop-color:#b6952a"
         offset=".72940" />
      <stop
         id="stop182-0"
         style="stop-color:#805f1c"
         offset="1" />
    </radialGradient>
    <radialGradient
       r="3.8875"
       cy="-2.3999"
       cx="28.450001"
       gradientTransform="matrix(11.188303,0,0,11.188303,237.84556,560.77862)"
       gradientUnits="userSpaceOnUse"
       id="radialGradient4691"
       xlink:href="#radialGradient176-6" />
    <linearGradient
       gradientTransform="matrix(0.08171661,0,0,0.08171661,19.777562,630.0634)"
       gradientUnits="userSpaceOnUse"
       y2="539.39368"
       x2="306.42221"
       y1="658.59167"
       x1="307.43234"
       id="linearGradient4739"
       xlink:href="#linearGradient4733" />
    <radialGradient
       r="3.8875"
       cy="-2.3999"
       cx="28.450001"
       gradientTransform="matrix(11.188303,0,0,11.188303,237.84556,560.77862)"
       gradientUnits="userSpaceOnUse"
       id="radialGradient4809"
       xlink:href="#radialGradient176-6" />
    <radialGradient
       r="3.8875"
       cy="-2.3999"
       cx="28.450001"
       gradientTransform="matrix(11.188303,0,0,11.188303,237.84556,560.77862)"
       gradientUnits="userSpaceOnUse"
       id="radialGradient4825"
       xlink:href="#radialGradient176-6" />
    <radialGradient
       r="3.8875"
       cy="-2.3999"
       cx="28.450001"
       gradientTransform="matrix(11.188303,0,0,11.188303,237.84556,560.77862)"
       gradientUnits="userSpaceOnUse"
       id="radialGradient4915"
       xlink:href="#radialGradient176-6" />
    <linearGradient
       gradientUnits="userSpaceOnUse"
       y2="671.50092"
       x2="44.664066"
       y1="671.50092"
       x1="27.531244"
       id="linearGradient5274"
       xlink:href="#linearGradient5268" />
    <linearGradient
       gradientUnits="userSpaceOnUse"
       y2="680.07086"
       x2="48.62225"
       y1="665.29736"
       x1="53.862419"
       id="linearGradient5284"
       xlink:href="#linearGradient5278" />
    <linearGradient
       gradientUnits="userSpaceOnUse"
       y2="669.14862"
       x2="45.844334"
       y1="659.42584"
       x1="64.405884"
       id="linearGradient5295"
       xlink:href="#linearGradient5289" />
    <linearGradient
       gradientUnits="userSpaceOnUse"
       y2="671.26434"
       x2="45.409664"
       y1="662.74121"
       x1="29.26458"
       id="linearGradient5306"
       xlink:href="#linearGradient5300" />
    <linearGradient
       y2="539.39368"
       x2="306.42221"
       y1="658.59167"
       x1="307.43234"
       gradientTransform="matrix(0.08171661,0,0,0.08171661,19.777562,630.0634)"
       gradientUnits="userSpaceOnUse"
       id="linearGradient5312"
       xlink:href="#linearGradient4733" />
  </defs>
  <metadata
     id="metadata5477">
    <rdf:RDF>
      <cc:Work
         rdf:about="">
        <dc:format>image/svg+xml</dc:format>
        <dc:type
           rdf:resource="http://purl.org/dc/dcmitype/StillImage" />
        <dc:title>Jester's Hat</dc:title>
        <dc:date>2015-03-25</dc:date>
        <dc:creator>
          <cc:Agent>
            <dc:title>Urs Roesch</dc:title>
          </cc:Agent>
        </dc:creator>
        <cc:license
           rdf:resource="http://creativecommons.org/publicdomain/zero/1.0/" />
        <dc:publisher>
          <cc:Agent>
            <dc:title>OpenClipart</dc:title>
          </cc:Agent>
        </dc:publisher>
        <dc:subject>
          <rdf:Bag>
            <rdf:li>jester's hat</rdf:li>
            <rdf:li>fool's hat</rdf:li>
            <rdf:li>hat</rdf:li>
            <rdf:li>jester</rdf:li>
            <rdf:li>fool</rdf:li>
            <rdf:li>remix</rdf:li>
            <rdf:li>bells</rdf:li>
            <rdf:li>red</rdf:li>
            <rdf:li>blue</rdf:li>
            <rdf:li>yellow</rdf:li>
            <rdf:li>green</rdf:li>
            <rdf:li>icon</rdf:li>
          </rdf:Bag>
        </dc:subject>
        <dc:contributor>
          <cc:Agent>
            <dc:title>dear_theophilus</dc:title>
          </cc:Agent>
        </dc:contributor>
        <dc:description>Jester's hat with bells based on &quot;Colored jester hat&quot; by dear_theophilus.</dc:description>
      </cc:Work>
      <cc:License
         rdf:about="http://creativecommons.org/publicdomain/zero/1.0/">
        <cc:permits
           rdf:resource="http://creativecommons.org/ns#Reproduction" />
        <cc:permits
           rdf:resource="http://creativecommons.org/ns#Distribution" />
        <cc:permits
           rdf:resource="http://creativecommons.org/ns#DerivativeWorks" />
      </cc:License>
    </rdf:RDF>
  </metadata>
  <g
     transform="translate(-21.549744,-656.5552)"
     id="layer1">
    <g
       transform="matrix(0.99999999,0,0,1.0349964,2.271855e-7,-24.022541)"
       id="g5372">
      <g
         id="g5346">
        <path
           id="path4895"
           d="m 44.748901,672.4395 c -0.756783,-17.86967 17.022261,-19.03664 20.715332,-6.72117 0.155068,0.35574 -0.561872,0.81397 -0.561872,0.81397 -7.587253,-5.09821 -10.859203,-2.58575 -12.880203,8.79927 l 1.077873,4.45086 z"
           style="fill:#ffcc00;fill-opacity:1;stroke:#ffffff;stroke-width:0;stroke-linecap:butt;stroke-linejoin:miter;stroke-miterlimit:4;stroke-dasharray:none;stroke-opacity:1" />
        <path
           id="path5287"
           d="m 56.888672,658.82617 c -2.675378,-0.48438 -5.482896,0.28459 -7.615234,2.44531 -2.067752,2.09528 -3.506166,5.58666 -3.386719,10.67383 l 5.283203,4.64453 -0.240234,-0.99414 a 1.1235521,1.1235521 0 0 1 -0.01367,-0.46093 c 1.026254,-5.78126 2.275866,-9.52519 4.814453,-11.30274 1.269293,-0.88877 2.852422,-1.12508 4.480469,-0.77344 1.099999,0.2376 2.278905,0.79236 3.511718,1.48243 -1.482697,-3.26416 -4.04764,-5.21037 -6.833984,-5.71485 z"
           style="fill:url(#linearGradient5295);fill-opacity:1;stroke:#ffffff;stroke-width:0;stroke-linecap:butt;stroke-linejoin:miter;stroke-miterlimit:4;stroke-dasharray:none;stroke-opacity:1" />
        <g
           id="g4899"
           transform="matrix(-0.05274634,0.05323169,0.05253521,0.05344561,36.404823,630.77333)">
          <g
             transform="matrix(0.97497284,0.22232402,-0.22232402,0.97497284,-372.63489,-29.707559)"
             id="g4901">
            <path
               id="circle4903"
               d="m 437.73458,670.8241 a 34.320248,34.320248 0 0 1 -34.32024,34.32024 34.320248,34.320248 0 0 1 -34.32025,-34.32024 34.320248,34.320248 0 0 1 34.32025,-34.32025 34.320248,34.320248 0 0 1 34.32024,34.32025 z"
               style="color:#000000;display:inline;overflow:visible;visibility:visible;fill:#5c4a10;fill-opacity:1;fill-rule:nonzero;stroke:#ffffff;stroke-width:0;stroke-linecap:butt;stroke-linejoin:miter;stroke-miterlimit:4;stroke-dasharray:none;stroke-dashoffset:0;stroke-opacity:1;marker:none;enable-background:accumulate"
               transform="matrix(0.96586826,-0.2590338,0.2590338,0.96586826,0,0)" />
            <path
               d="m 567.92849,568.58246 -8.4192,0 c -5.24451,-1.09087 -9.71984,-3.5383 -13.43995,-7.25842 -5.18857,-5.18857 -7.81782,-11.20228 -7.81782,-17.85932 0,-7.10457 2.62925,-13.06235 7.81782,-17.92925 4.86692,-4.85294 10.65686,-7.25842 17.36985,-7.25842 7.04862,0 13.06234,2.40548 17.87331,7.25842 4.85292,4.8669 7.25841,10.82468 7.25841,17.92925 0,6.65704 -2.40549,12.67075 -7.25841,17.85932 -3.72011,3.72012 -8.19544,6.16755 -13.38401,7.25842 z"
               style="fill:url(#radialGradient4915);fill-rule:evenodd"
               id="path4905" />
          </g>
          <g
             id="g4907">
            <path
               id="circle4909"
               d="m 41.236156,627.04651 a 9.066783,9.066783 0 0 1 -9.066783,9.06678 9.066783,9.066783 0 0 1 -9.066783,-9.06678 9.066783,9.066783 0 0 1 9.066783,-9.06678 9.066783,9.066783 0 0 1 9.066783,9.06678 z"
               style="color:#000000;display:inline;overflow:visible;visibility:visible;fill:#5c4a10;fill-opacity:1;fill-rule:nonzero;stroke:#ffffff;stroke-width:0;stroke-linecap:butt;stroke-linejoin:miter;stroke-miterlimit:4;stroke-dasharray:none;stroke-dashoffset:0;stroke-opacity:1;marker:none;enable-background:accumulate"
               transform="matrix(0.99928475,-0.03781521,0.03781521,0.99928475,0,0)" />
            <path
               id="path4911"
               d="m 51.714844,630.13672 c -5.424001,7.47331 -4.309984,18.79955 2.646484,24.92578 5.242752,-0.97114 8.535757,-1.28355 2.904297,-4.67188 -4.080706,-4.33162 -4.77418,-11.35936 -1.644531,-16.41601 -1.11942,-0.68443 -2.752101,-6.9166 -3.90625,-3.83789 z"
               style="opacity:1;fill:#5c4a10;fill-opacity:1;stroke:none;stroke-width:20;stroke-linecap:round;stroke-linejoin:round;stroke-miterlimit:4;stroke-dasharray:none;stroke-opacity:1" />
          </g>
        </g>
      </g>
      <path
         id="path5431"
         d="m 36.033558,678.35353 c 1.881936,0.53952 4.476689,-2.2681 4.476689,-2.2681 0,0 3.101493,2.62665 4.476689,2.58806 1.375197,-0.0386 4.47669,-2.80179 4.47669,-2.80179 0,0 2.951647,3.02726 4.512007,2.48183 0,0 -0.393813,2.74025 0,5.54269 -6.63172,2.22359 -11.663996,2.2051 -17.942075,0 1.109961,-2.95253 0,-5.54269 0,-5.54269 z"
         style="fill:#5c4a10;fill-opacity:1;stroke:#ffffff;stroke-width:0;stroke-linecap:butt;stroke-linejoin:miter;stroke-miterlimit:4;stroke-dasharray:none;stroke-opacity:1" />
      <path
         style="fill:url(#linearGradient5312);fill-opacity:1;stroke:#ffffff;stroke-width:0;stroke-linecap:butt;stroke-linejoin:miter;stroke-miterlimit:4;stroke-dasharray:none;stroke-opacity:1"
         d="m 49.460938,674.98438 a 0.88622777,0.88622777 0 0 0 -0.654297,0.29101 c 0,0 -0.753158,0.8296 -1.66211,1.6543 -0.454475,0.41234 -0.946841,0.82051 -1.373047,1.10742 -0.426205,0.28691 -0.824103,0.40468 -0.810546,0.4043 0.01746,-4.9e-4 -0.363655,-0.0924 -0.785157,-0.35547 -0.421501,-0.26306 -0.912355,-0.64533 -1.365234,-1.03516 -0.905758,-0.77966 -1.65625,-1.57422 -1.65625,-1.57422 a 0.88622777,0.88622777 0 0 0 -1.294922,0.008 c 0,0 -0.599217,0.64323 -1.398437,1.21679 -0.799221,0.57357 -1.737694,0.92862 -2.183594,0.80078 a 0.88622777,0.88622777 0 0 0 -1.058594,1.20117 c 0,0 0.965787,2.27028 -0.01563,4.88086 a 0.88622777,0.88622777 0 0 0 0.537109,1.14844 c 6.416344,2.25367 11.756315,2.27093 18.517578,0.004 a 0.88622777,0.88622777 0 0 0 0.595704,-0.96289 c -0.371406,-2.64299 0,-5.29297 0,-5.29297 a 0.88622777,0.88622777 0 0 0 -1.169922,-0.96289 c -0.06681,0.0234 -0.337174,0.0247 -0.728516,-0.13867 -0.391342,-0.16335 -0.863204,-0.45681 -1.294922,-0.77539 -0.863435,-0.63718 -1.5625,-1.35157 -1.5625,-1.35157 a 0.88622777,0.88622777 0 0 0 -0.636718,-0.26757 z"
         id="path5229" />
      <g
         id="g5335">
        <path
           style="fill:#d40000;fill-opacity:1;stroke:#ffffff;stroke-width:0;stroke-linecap:butt;stroke-linejoin:miter;stroke-miterlimit:4;stroke-dasharray:none;stroke-opacity:1"
           d="m 44.72188,673.66529 c 2.713953,-12.18756 -8.246564,-21.47859 -19.768317,-7.96356 -0.155067,0.35575 0.561873,0.81398 0.561873,0.81398 8.536714,-4.00861 11.058381,4.40346 11.802331,13.25012 z"
           id="path5425" />
        <g
           transform="matrix(0.05274635,0.05323168,-0.05253521,0.05344561,54.012974,630.75674)"
           id="g4795">
          <g
             id="g4797"
             transform="matrix(0.97497284,0.22232402,-0.22232402,0.97497284,-372.63489,-29.707559)">
            <path
               id="circle4799"
               d="m 437.73458,670.8241 a 34.320248,34.320248 0 0 1 -34.32024,34.32024 34.320248,34.320248 0 0 1 -34.32025,-34.32024 34.320248,34.320248 0 0 1 34.32025,-34.32025 34.320248,34.320248 0 0 1 34.32024,34.32025 z"
               style="color:#000000;display:inline;overflow:visible;visibility:visible;fill:#5c4a10;fill-opacity:1;fill-rule:nonzero;stroke:#ffffff;stroke-width:0;stroke-linecap:butt;stroke-linejoin:miter;stroke-miterlimit:4;stroke-dasharray:none;stroke-dashoffset:0;stroke-opacity:1;marker:none;enable-background:accumulate"
               transform="matrix(0.96586826,-0.2590338,0.2590338,0.96586826,0,0)" />
            <path
               id="path4801"
               style="fill:url(#radialGradient4809);fill-rule:evenodd"
               d="m 567.92849,568.58246 -8.4192,0 c -5.24451,-1.09087 -9.71984,-3.5383 -13.43995,-7.25842 -5.18857,-5.18857 -7.81782,-11.20228 -7.81782,-17.85932 0,-7.10457 2.62925,-13.06235 7.81782,-17.92925 4.86692,-4.85294 10.65686,-7.25842 17.36985,-7.25842 7.04862,0 13.06234,2.40548 17.87331,7.25842 4.85292,4.8669 7.25841,10.82468 7.25841,17.92925 0,6.65704 -2.40549,12.67075 -7.25841,17.85932 -3.72011,3.72012 -8.19544,6.16755 -13.38401,7.25842 z" />
          </g>
          <g
             id="g4803">
            <path
               id="circle4805"
               d="m 41.236156,627.04651 a 9.066783,9.066783 0 0 1 -9.066783,9.06678 9.066783,9.066783 0 0 1 -9.066783,-9.06678 9.066783,9.066783 0 0 1 9.066783,-9.06678 9.066783,9.066783 0 0 1 9.066783,9.06678 z"
               style="color:#000000;display:inline;overflow:visible;visibility:visible;fill:#5c4a10;fill-opacity:1;fill-rule:nonzero;stroke:#ffffff;stroke-width:0;stroke-linecap:butt;stroke-linejoin:miter;stroke-miterlimit:4;stroke-dasharray:none;stroke-dashoffset:0;stroke-opacity:1;marker:none;enable-background:accumulate"
               transform="matrix(0.99928475,-0.03781521,0.03781521,0.99928475,0,0)" />
            <path
               style="opacity:1;fill:#5c4a10;fill-opacity:1;stroke:none;stroke-width:20;stroke-linecap:round;stroke-linejoin:round;stroke-miterlimit:4;stroke-dasharray:none;stroke-opacity:1"
               d="m 51.714844,630.13672 c -5.424001,7.47331 -4.309984,18.79955 2.646484,24.92578 5.242752,-0.97114 8.535757,-1.28355 2.904297,-4.67188 -4.080706,-4.33162 -4.77418,-11.35936 -1.644531,-16.41601 -1.11942,-0.68443 -2.752101,-6.9166 -3.90625,-3.83789 z"
               id="path4807" />
          </g>
        </g>
        <path
           id="path5298"
           d="m 36.884766,660.26562 c -2.493106,-0.21269 -5.657636,1.00904 -9.072266,4.26563 1.189274,-0.23952 2.318504,-0.29998 3.335938,-0.0449 1.784854,0.44745 3.182489,1.64324 4.193359,3.17187 1.685698,2.54911 2.406646,6.12116 2.851562,9.83008 l 5.376953,-4.42969 c 0.681778,-3.41519 0.254388,-6.53107 -0.966796,-8.79297 -1.264678,-2.34245 -3.248746,-3.78927 -5.71875,-4 z"
           style="fill:url(#linearGradient5306);fill-opacity:1;stroke:#ffffff;stroke-width:0;stroke-linecap:butt;stroke-linejoin:miter;stroke-miterlimit:4;stroke-dasharray:none;stroke-opacity:1" />
      </g>
      <g
         id="g5357">
        <path
           id="path5429"
           d="m 53.551332,680.57416 c 1.019308,-8.38902 6.877718,-12.00139 11.721059,-0.79411 l 0.945767,-0.55876 c 0.09695,-22.74554 -25.645816,-20.10793 -21.729991,2.39156 z"
           style="fill:#2c5aa0;fill-opacity:1;stroke:#ffffff;stroke-width:0;stroke-linecap:butt;stroke-linejoin:miter;stroke-miterlimit:4;stroke-dasharray:none;stroke-opacity:1" />
        <path
           id="path5276"
           d="m 54.074219,664.88477 c -4.801334,0.50863 -9.516484,5.37103 -8.302735,15.14843 l 6.832032,-0.69336 c 0.312277,-1.74373 0.771716,-3.34278 1.476562,-4.62304 0.863532,-1.5685 2.057966,-2.80817 3.648438,-3.23633 1.590471,-0.42817 3.353926,0.14213 4.816406,1.45508 0.67085,0.60225 1.306949,1.40198 1.927734,2.32422 -0.529714,-3.32204 -1.727676,-5.78608 -3.232422,-7.45899 -2.0515,-2.28076 -4.654086,-3.18212 -7.166015,-2.91601 z"
           style="fill:url(#linearGradient5284);fill-opacity:1;stroke:#ffffff;stroke-width:0;stroke-linecap:butt;stroke-linejoin:miter;stroke-miterlimit:4;stroke-dasharray:none;stroke-opacity:1" />
        <g
           id="g4811"
           transform="matrix(-0.08170196,-0.00154748,-0.00154748,0.08170196,71.407274,627.62586)">
          <g
             transform="matrix(0.97497284,0.22232402,-0.22232402,0.97497284,-372.63489,-29.707559)"
             id="g4813">
            <path
               id="circle4815"
               d="m 437.73458,670.8241 a 34.320248,34.320248 0 0 1 -34.32024,34.32024 34.320248,34.320248 0 0 1 -34.32025,-34.32024 34.320248,34.320248 0 0 1 34.32025,-34.32025 34.320248,34.320248 0 0 1 34.32024,34.32025 z"
               style="color:#000000;display:inline;overflow:visible;visibility:visible;fill:#5c4a10;fill-opacity:1;fill-rule:nonzero;stroke:#ffffff;stroke-width:0;stroke-linecap:butt;stroke-linejoin:miter;stroke-miterlimit:4;stroke-dasharray:none;stroke-dashoffset:0;stroke-opacity:1;marker:none;enable-background:accumulate"
               transform="matrix(0.96586826,-0.2590338,0.2590338,0.96586826,0,0)" />
            <path
               d="m 567.92849,568.58246 -8.4192,0 c -5.24451,-1.09087 -9.71984,-3.5383 -13.43995,-7.25842 -5.18857,-5.18857 -7.81782,-11.20228 -7.81782,-17.85932 0,-7.10457 2.62925,-13.06235 7.81782,-17.92925 4.86692,-4.85294 10.65686,-7.25842 17.36985,-7.25842 7.04862,0 13.06234,2.40548 17.87331,7.25842 4.85292,4.8669 7.25841,10.82468 7.25841,17.92925 0,6.65704 -2.40549,12.67075 -7.25841,17.85932 -3.72011,3.72012 -8.19544,6.16755 -13.38401,7.25842 z"
               style="fill:url(#radialGradient4825);fill-rule:evenodd"
               id="path4817" />
          </g>
          <g
             id="g4819">
            <path
               id="circle4821"
               d="m 41.236156,627.04651 a 9.066783,9.066783 0 0 1 -9.066783,9.06678 9.066783,9.066783 0 0 1 -9.066783,-9.06678 9.066783,9.066783 0 0 1 9.066783,-9.06678 9.066783,9.066783 0 0 1 9.066783,9.06678 z"
               style="color:#000000;display:inline;overflow:visible;visibility:visible;fill:#5c4a10;fill-opacity:1;fill-rule:nonzero;stroke:#ffffff;stroke-width:0;stroke-linecap:butt;stroke-linejoin:miter;stroke-miterlimit:4;stroke-dasharray:none;stroke-dashoffset:0;stroke-opacity:1;marker:none;enable-background:accumulate"
               transform="matrix(0.99928475,-0.03781521,0.03781521,0.99928475,0,0)" />
            <path
               id="path4823"
               d="m 51.714844,630.13672 c -5.424001,7.47331 -4.309984,18.79955 2.646484,24.92578 5.242752,-0.97114 8.535757,-1.28355 2.904297,-4.67188 -4.080706,-4.33162 -4.77418,-11.35936 -1.644531,-16.41601 -1.11942,-0.68443 -2.752101,-6.9166 -3.90625,-3.83789 z"
               style="opacity:1;fill:#5c4a10;fill-opacity:1;stroke:none;stroke-width:20;stroke-linecap:round;stroke-linejoin:round;stroke-miterlimit:4;stroke-dasharray:none;stroke-opacity:1" />
          </g>
        </g>
      </g>
      <g
         id="g5324">
        <path
           style="fill:#008033;fill-opacity:1;stroke:#ffffff;stroke-width:0;stroke-linecap:butt;stroke-linejoin:miter;stroke-miterlimit:4;stroke-dasharray:none;stroke-opacity:1"
           d="m 36.491985,679.324 c -3.561204,-8.23408 -7.05955,-8.51008 -9.561495,1.27425 l -0.818737,-0.23049 c -2.431825,-22.36941 17.963276,-24.22807 20.270472,-0.0663 z"
           id="path5427" />
        <g
           transform="matrix(0.08106717,-0.01028193,0.01028193,0.08106717,15.383712,631.04388)"
           id="g4787">
          <g
             transform="matrix(0.97497284,0.22232402,-0.22232402,0.97497284,-372.63489,-29.707559)"
             id="g4685">
            <path
               id="circle4687"
               d="m 437.73458,670.8241 a 34.320248,34.320248 0 0 1 -34.32024,34.32024 34.320248,34.320248 0 0 1 -34.32025,-34.32024 34.320248,34.320248 0 0 1 34.32025,-34.32025 34.320248,34.320248 0 0 1 34.32024,34.32025 z"
               style="color:#000000;display:inline;overflow:visible;visibility:visible;fill:#5c4a10;fill-opacity:1;fill-rule:nonzero;stroke:#ffffff;stroke-width:0;stroke-linecap:butt;stroke-linejoin:miter;stroke-miterlimit:4;stroke-dasharray:none;stroke-dashoffset:0;stroke-opacity:1;marker:none;enable-background:accumulate"
               transform="matrix(0.96586826,-0.2590338,0.2590338,0.96586826,0,0)" />
            <path
               d="m 567.92849,568.58246 -8.4192,0 c -5.24451,-1.09087 -9.71984,-3.5383 -13.43995,-7.25842 -5.18857,-5.18857 -7.81782,-11.20228 -7.81782,-17.85932 0,-7.10457 2.62925,-13.06235 7.81782,-17.92925 4.86692,-4.85294 10.65686,-7.25842 17.36985,-7.25842 7.04862,0 13.06234,2.40548 17.87331,7.25842 4.85292,4.8669 7.25841,10.82468 7.25841,17.92925 0,6.65704 -2.40549,12.67075 -7.25841,17.85932 -3.72011,3.72012 -8.19544,6.16755 -13.38401,7.25842 z"
               style="fill:url(#radialGradient4691);fill-rule:evenodd"
               id="path4689" />
          </g>
          <g
             id="g4777">
            <path
               id="circle4747"
               d="m 41.236156,627.04651 a 9.066783,9.066783 0 0 1 -9.066783,9.06678 9.066783,9.066783 0 0 1 -9.066783,-9.06678 9.066783,9.066783 0 0 1 9.066783,-9.06678 9.066783,9.066783 0 0 1 9.066783,9.06678 z"
               style="color:#000000;display:inline;overflow:visible;visibility:visible;fill:#5c4a10;fill-opacity:1;fill-rule:nonzero;stroke:#ffffff;stroke-width:0;stroke-linecap:butt;stroke-linejoin:miter;stroke-miterlimit:4;stroke-dasharray:none;stroke-dashoffset:0;stroke-opacity:1;marker:none;enable-background:accumulate"
               transform="matrix(0.99928475,-0.03781521,0.03781521,0.99928475,0,0)" />
            <path
               id="path4762"
               d="m 51.714844,630.13672 c -5.424001,7.47331 -4.309984,18.79955 2.646484,24.92578 5.242752,-0.97114 8.535757,-1.28355 2.904297,-4.67188 -4.080706,-4.33162 -4.77418,-11.35936 -1.644531,-16.41601 -1.11942,-0.68443 -2.752101,-6.9166 -3.90625,-3.83789 z"
               style="opacity:1;fill:#5c4a10;fill-opacity:1;stroke:none;stroke-width:20;stroke-linecap:round;stroke-linejoin:round;stroke-miterlimit:4;stroke-dasharray:none;stroke-opacity:1" />
          </g>
        </g>
        <path
           id="path5266"
           d="m 34.535156,664.25977 c -2.016124,0.0954 -3.96854,1.30279 -5.398437,3.92187 -0.91303,1.67236 -1.39898,4.12627 -1.605469,6.93555 0.09979,-0.18782 0.165594,-0.54227 0.269531,-0.71485 0.851151,-1.41327 1.961931,-2.45996 3.408203,-2.57031 1.446273,-0.11035 2.679997,0.75369 3.691407,1.95508 0.858562,1.01983 1.637669,2.54826 2.421875,4.23633 l 7.341796,0.72461 c -0.705032,-4.86164 -2.084239,-8.62396 -3.855468,-10.93946 -1.994241,-2.60704 -4.257308,-3.64426 -6.273438,-3.54882 z"
           style="fill:url(#linearGradient5274);fill-opacity:1;stroke:#ffffff;stroke-width:0;stroke-linecap:butt;stroke-linejoin:miter;stroke-miterlimit:4;stroke-dasharray:none;stroke-opacity:1" />
      </g>
      <path
         style="fill:url(#linearGradient4739);fill-opacity:1;stroke:#ffffff;stroke-width:0;stroke-linecap:butt;stroke-linejoin:miter;stroke-miterlimit:4;stroke-dasharray:none;stroke-opacity:1"
         d="m 36.033558,678.35353 c 1.881936,0.53952 4.476689,-2.2681 4.476689,-2.2681 0,0 3.101493,3.28038 4.476689,3.24179 1.375197,-0.0386 4.47669,-3.45552 4.47669,-3.45552 0,0 2.951647,3.02726 4.512007,2.48183 0,0 -0.393813,2.74025 0,5.54269 -6.63172,2.22359 -11.663996,2.2051 -17.942075,0 1.109961,-2.95253 0,-5.54269 0,-5.54269 z"
         id="path4721" />
    </g>
  </g>
</svg>
